<svg width="40" height="40" viewBox="0 0 40 40" fill="none" xmlns="http://www.w3.org/2000/svg">
<rect x="0.5" y="0.5" width="39" height="39" stroke="#EDEDED"/>
<path d="M31.257 13.4745C30.0944 11.4829 28.5175 9.90596 26.5259 8.7435C24.5338 7.58109 22.3592 7 20.0004 7C17.6419 7 15.4666 7.58109 13.4749 8.7435C11.4831 9.90579 9.90621 11.4827 8.74368 13.4745C7.58109 15.4664 7 17.6416 7 20C7 22.3585 7.58127 24.5334 8.7435 26.5254C9.90598 28.517 11.4829 30.0939 13.4747 31.2565C15.4666 32.4189 17.6417 33 20.0002 33C22.3587 33 24.534 32.4189 26.5258 31.2565C28.5175 30.0943 30.0943 28.517 31.2567 26.5254C32.419 24.5336 33 22.3584 33 20C33.0001 17.6414 32.419 15.4661 31.257 13.4745ZM20.0002 8.89587C22.7987 8.89587 25.242 9.82118 27.3296 11.6718L27.118 11.9678C27.0334 12.0865 26.8218 12.3147 26.4833 12.6535C26.1449 12.9919 25.7753 13.3137 25.3747 13.6183C24.9738 13.9231 24.4296 14.27 23.741 14.6594C23.0526 15.0487 22.3191 15.3903 21.5404 15.6836C20.2427 13.291 18.8548 11.1357 17.3765 9.21739C18.2681 9.003 19.1426 8.89587 20.0002 8.89587ZM11.2999 13.1103C12.3831 11.7451 13.7032 10.6954 15.2607 9.96205C16.66 11.824 18.0366 13.957 19.3909 16.3605C15.9603 17.2633 12.5411 17.7147 9.13309 17.7145C9.4944 16.0107 10.2166 14.4757 11.2999 13.1103ZM9.64072 24.0036C9.14412 22.7341 8.89588 21.3994 8.89588 20C8.89588 19.8419 8.90169 19.7234 8.91283 19.6445C12.9981 19.6445 16.7956 19.1199 20.3051 18.0702C20.6663 18.7698 20.9653 19.3961 21.2023 19.9492C21.1566 19.9718 21.0838 19.997 20.9822 20.0253C20.8803 20.0535 20.8071 20.0731 20.7616 20.0845L20.1354 20.3046C19.7064 20.4626 19.1448 20.7335 18.4511 21.117C17.7572 21.5011 17.0209 21.9578 16.2422 22.4883C15.4635 23.0189 14.6594 23.7214 13.8301 24.5962C13.0006 25.4707 12.3038 26.4099 11.7395 27.4142C10.8368 26.4099 10.1372 25.2727 9.64072 24.0036ZM20.0002 31.1043C17.3595 31.1043 15.001 30.2579 12.9245 28.5653L13.1785 28.7516C13.5734 27.8824 14.1545 27.0473 14.922 26.2462C15.6895 25.4452 16.4286 24.7988 17.1395 24.3078C17.8504 23.8172 18.6234 23.3546 19.4586 22.9196C20.2936 22.4854 20.8632 22.2087 21.1682 22.0906C21.4729 21.9721 21.7156 21.8788 21.8961 21.811L21.9298 21.794H21.9639C23.0694 24.6941 23.8598 27.5042 24.3335 30.2238C22.9342 30.8109 21.49 31.1041 20.0002 31.1043ZM29.3445 26.0007C28.5094 27.293 27.4653 28.3624 26.213 29.2084C25.75 26.613 25.0282 23.9665 24.0461 21.2696C26.2918 20.9194 28.5995 21.0833 30.9693 21.7602C30.7209 23.2949 30.1792 24.7087 29.3445 26.0007ZM30.9352 19.8477C30.8224 19.8253 30.6812 19.7997 30.5119 19.7716C30.3427 19.7436 30.1366 19.7095 29.8939 19.6701C29.6516 19.6306 29.3804 19.594 29.0816 19.5601C28.7824 19.5262 28.4637 19.4953 28.1249 19.4671C27.7864 19.4387 27.4253 19.4164 27.0418 19.3993C26.6576 19.3825 26.2685 19.3739 25.8735 19.3739C25.4789 19.3739 25.0638 19.3854 24.6296 19.4078C24.1952 19.43 23.775 19.47 23.3688 19.5263C23.3347 19.4698 23.2925 19.3766 23.2417 19.2468C23.191 19.1171 23.154 19.0182 23.1322 18.9505C22.9175 18.4766 22.6691 17.9405 22.3867 17.3426C23.1654 17.0264 23.9076 16.6626 24.6133 16.2506C25.3184 15.8386 25.8822 15.4721 26.3057 15.1505C26.7289 14.8286 27.1295 14.4872 27.5074 14.1262C27.8856 13.7651 28.1307 13.5141 28.244 13.373C28.357 13.2317 28.4641 13.0935 28.5656 12.9583L28.5826 12.9412C30.2301 14.9499 31.0712 17.2632 31.1046 19.8815L30.9352 19.8477Z" fill="#EDEDED"/>
</svg>
