<svg width="912" height="92" viewBox="0 0 912 92" fill="none" xmlns="http://www.w3.org/2000/svg">
<path d="M365 29L299.502 46.2743C282.786 50.6827 265.214 50.6827 248.498 46.2743L183 29" stroke="#6A98CF" stroke-width="3"/>
<path d="M183 29L119.472 10.8492C101.517 5.71904 82.4834 5.71904 64.5279 10.8492L0.999999 29" stroke="#6A98CF" stroke-width="3"/>
<path d="M365 29L425.636 9.67629C445.389 3.38138 466.611 3.38139 486.364 9.67631L547 29" stroke="#6A98CF" stroke-width="3"/>
<path d="M547 29L612.498 46.2743C629.214 50.6827 646.786 50.6827 663.502 46.2743L729 29" stroke="#6A98CF" stroke-width="3"/>
<path d="M729 29L792.528 10.8492C810.483 5.71904 829.517 5.71904 847.472 10.8492L911 29" stroke="#6A98CF" stroke-width="3"/>
<path d="M365 47L299.502 64.2743C282.786 68.6827 265.214 68.6827 248.498 64.2743L183 47" stroke="#4B79B0" stroke-width="3"/>
<path d="M183 47L117.502 29.7257C100.786 25.3173 83.2137 25.3173 66.4984 29.7257L0.999999 47" stroke="#4B79B0" stroke-width="3"/>
<path d="M365 47L427.555 28.4396C446.118 22.9319 465.881 22.9319 484.445 28.4396L547 47" stroke="#4B79B0" stroke-width="3"/>
<path d="M547 47L612.498 64.2743C629.214 68.6827 646.786 68.6827 663.502 64.2743L729 47" stroke="#4B79B0" stroke-width="3"/>
<path d="M729 47L794.498 29.7257C811.214 25.3173 828.786 25.3173 845.502 29.7257L911 47" stroke="#4B79B0" stroke-width="3"/>
<path d="M365 65L302.445 83.5604C283.882 89.0681 264.119 89.0681 245.555 83.5604L183 65" stroke="#2D5B92" stroke-width="3"/>
<path d="M183 65L117.502 47.7257C100.786 43.3173 83.2137 43.3173 66.4984 47.7257L0.999999 65" stroke="#2D5B92" stroke-width="3"/>
<path d="M365 65L427.555 46.4396C446.118 40.9319 465.881 40.9319 484.445 46.4396L547 65" stroke="#2D5B92" stroke-width="3"/>
<path d="M547 65L609.555 83.5604C628.118 89.0681 647.881 89.0681 666.445 83.5604L729 65" stroke="#2D5B92" stroke-width="3"/>
<path d="M729 65L794.498 47.7257C811.214 43.3173 828.786 43.3173 845.502 47.7257L911 65" stroke="#2D5B92" stroke-width="3"/>
</svg>
