<svg width="40" height="40" viewBox="0 0 40 40" fill="none" xmlns="http://www.w3.org/2000/svg">
<rect x="0.5" y="0.5" width="39" height="39" stroke="#EDEDED"/>
<g clip-path="url(#clip0)">
<path d="M21.0595 16.1587V16.9248L20.6265 17.626H21.0595V18.3561L21.7296 17.626H22.0595V17.2705C22.4242 16.8956 22.8572 16.5484 23.4771 16.2811C24.1789 15.9785 25.1517 15.7649 26.583 15.7649C28.3054 15.7648 29.7657 16.3245 30.7992 17.4454C31.8365 18.5702 32.5 20.3214 32.5 22.8099V31.9223H27.9274V23.4537C27.9274 22.2818 27.7202 21.2172 27.1855 20.4321C26.629 19.6151 25.7602 19.1632 24.6042 19.1632C22.7942 19.1632 21.7328 20.3932 21.2817 21.5136C21.0949 21.9702 21.0601 22.5553 21.0601 23.0604V31.9223H16.4879L16.4886 31.7688C16.4906 31.3503 16.4932 30.7507 16.4961 30.0263C16.502 28.5775 16.509 26.6293 16.5137 24.6318C16.5218 21.2032 16.5231 17.6061 16.4988 16.1587H21.0595ZM7.5 10.4736C7.5 9.78215 7.75978 9.19209 8.20491 8.77276C8.65104 8.35249 9.31187 8.07777 10.1544 8.07777C10.9955 8.07777 11.6353 8.3514 12.0664 8.76827C12.4974 9.18497 12.7537 9.77717 12.7706 10.4791C12.7692 11.1529 12.5173 11.7426 12.0769 12.1653C11.6356 12.5888 10.9765 12.8715 10.1176 12.8715H10.0804C8.47567 12.8715 7.5 11.7949 7.5 10.4736ZM12.4035 16.1587V31.9223H7.83108V16.1587H12.4035Z" stroke="#EDEDED"/>
</g>
<defs>
<clipPath id="clip0">
<rect width="26" height="26" fill="white" transform="translate(7 7)"/>
</clipPath>
</defs>
</svg>
