<svg width="40" height="40" viewBox="0 0 40 40" fill="none" xmlns="http://www.w3.org/2000/svg">
<rect x="0.5" y="0.5" width="39" height="39" stroke="#EDEDED"/>
<path d="M29.8256 10H10.1793C8.42559 10 7 11.4256 7 13.1793V26.6068C7 28.3605 8.42559 29.7861 10.1793 29.7861H29.8202C31.574 29.7861 32.9996 28.3605 32.9996 26.6068V13.1847C33.0049 11.431 31.5793 10 29.8256 10ZM31.5525 26.6068C31.5525 27.559 30.7778 28.3336 29.8256 28.3336H10.1793C9.22715 28.3336 8.45249 27.559 8.45249 26.6068V13.1847C8.45249 12.2325 9.22715 11.4579 10.1793 11.4579H29.8202C30.7724 11.4579 31.5471 12.2325 31.5471 13.1847V26.6068H31.5525Z" fill="#EDEDED"/>
<path d="M23.3968 19.7263L29.7554 14.0239C30.0513 13.755 30.0782 13.2977 29.8092 12.9964C29.5403 12.7006 29.083 12.6737 28.7817 12.9426L20.013 20.813L18.3023 19.2852C18.2969 19.2798 18.2915 19.2744 18.2915 19.269C18.2539 19.2314 18.2162 19.1991 18.1732 19.1668L11.212 12.9373C10.9107 12.6683 10.4535 12.6952 10.1845 12.9964C9.91551 13.2977 9.94241 13.755 10.2437 14.0239L16.6777 19.7747L10.2706 25.773C9.98007 26.0473 9.96393 26.5046 10.2383 26.8005C10.3835 26.9511 10.5772 27.0318 10.7709 27.0318C10.9484 27.0318 11.1259 26.9672 11.2658 26.8381L17.7697 20.7538L19.5342 22.33C19.6741 22.4538 19.8462 22.5129 20.0184 22.5129C20.1905 22.5129 20.3681 22.4484 20.5025 22.3247L22.3155 20.7L28.7817 26.8435C28.9216 26.978 29.1045 27.0426 29.282 27.0426C29.4757 27.0426 29.664 26.9672 29.8092 26.8166C30.0836 26.5261 30.0728 26.0635 29.7823 25.7891L23.3968 19.7263Z" fill="#EDEDED"/>
</svg>
