<svg width="40" height="40" viewBox="0 0 40 40" fill="none" xmlns="http://www.w3.org/2000/svg">
<rect x="0.5" y="0.5" width="39" height="39" stroke="#EDEDED"/>
<path d="M33 12.6553C31.3645 12.7257 31.4002 12.72 31.2153 12.7344L32.1839 10.1499C32.1839 10.1499 29.1605 11.1891 28.394 11.375C26.381 9.68454 23.3889 9.60985 21.2497 10.8383C19.4979 11.8445 18.5577 13.5723 18.8713 15.592C15.462 15.1499 12.5895 13.64 10.3216 11.0946L9.60432 10.2897L9.06834 11.2093C8.39093 12.3714 8.16599 13.7 8.43477 14.9505C8.54506 15.4635 8.73251 15.9528 8.99217 16.411L8.37685 16.1882L8.30385 17.1488C8.22986 18.1246 8.57759 19.2637 9.23418 20.1955C9.41905 20.458 9.65709 20.7462 9.9588 21.0305L9.64082 20.9849L10.0288 22.0856C10.5388 23.5318 11.5981 24.6507 12.9727 25.2726C11.5999 25.817 10.4908 26.1643 8.66785 26.7246L7 27.2368L8.5405 28.0238C9.12785 28.3238 11.2033 29.326 13.254 29.6266C17.8124 30.2945 22.9447 29.7506 26.3998 26.8432C29.31 24.3943 30.265 20.9109 30.0666 17.2859C30.0366 16.7372 30.1975 16.2134 30.5197 15.8114C31.1649 15.0065 32.996 12.6607 33 12.6553ZM29.3015 14.9588C28.7665 15.6262 28.4985 16.4786 28.5465 17.3586C28.7467 21.0151 27.6819 23.8507 25.3814 25.7864C22.6942 28.0477 18.3597 28.9353 13.4899 28.2215C12.608 28.0924 11.6965 27.803 10.9421 27.5141C12.4705 27.0228 13.6508 26.5848 15.5568 25.7419L18.2177 24.5652L15.2799 24.3895C13.8727 24.3054 12.701 23.6682 11.9807 22.6336C12.3632 22.6129 12.7319 22.5551 13.0991 22.4594L15.901 21.7303L13.0757 21.0838C11.7028 20.7697 10.9203 20.0022 10.5055 19.4136C10.2331 19.0268 10.0552 18.6306 9.94849 18.2653C10.2318 18.3362 10.562 18.3868 11.0946 18.4361L13.7097 18.6778L11.6378 17.1677C10.1449 16.0798 9.5466 14.4453 9.98518 12.874C14.6444 17.3892 20.1149 17.0498 20.6655 17.1692C20.5443 16.0692 20.5411 16.0666 20.5094 15.9619C19.8042 13.6328 21.3497 12.4501 22.0467 12.0498C23.5027 11.2138 25.8139 11.0877 27.4147 12.4651C27.7604 12.7624 28.228 12.8794 28.6655 12.7778C29.0583 12.6866 29.3806 12.5901 29.6962 12.485L29.0393 14.2379L29.8779 14.2384C29.7197 14.4368 29.5298 14.6742 29.3015 14.9588Z" fill="#EDEDED"/>
</svg>
